# xmcd
#
# Track frame offsets: 
#        150
#        18380
#        32549
#        37744
#        51523
#        66785
#        90461
#        102175
#        118238
#        143570
#        167811
#        180395
#        191505
#        206548
#        215496
#
# Disc length: 3101 seconds
#
# Revision: 1
# Processed by: cddbd v1.5.2PL0 Copyright (c) Steve Scherf et al.
# Submitted via: ExactAudioCopy v1.0b3
#
DISCID=c80c1b0f
DTITLE=Big Daddy Wilson and Doc. Fozz - My Day Will Come
DYEAR=2004
DGENRE=Blues
TTITLE0=Talking To Myself
TTITLE1=My Day Will Come
TTITLE2=Motherless Child
TTITLE3=Grandmas' Hands
TTITLE4=Hand It Over
TTITLE5=Tell Old Bill
TTITLE6=Traveling Blues
TTITLE7=A Little Bit
TTITLE8=Summertime
TTITLE9=Crazy World
TTITLE10=Texas Boogie
TTITLE11=Early In The Morning
TTITLE12=Born With The Blues
TTITLE13=Nobody Knows
TTITLE14=Walk With Me Lord
EXTD=YEAR: 2004
EXTT0=
EXTT1=
EXTT2=
EXTT3=
EXTT4=
EXTT5=
EXTT6=
EXTT7=
EXTT8=
EXTT9=
EXTT10=
EXTT11=
EXTT12=
EXTT13=
EXTT14=
PLAYORDER=
